<svg xmlns="http://www.w3.org/2000/svg" version="1.1" xmlns:xlink="http://www.w3.org/1999/xlink" xmlns:svgjs="http://svgjs.dev/svgjs" width="1500" height="1500" viewBox="0 0 1500 1500"><rect width="1500" height="1500" fill="#ffffff"></rect><g transform="matrix(0.6666666666666666,0,0,0.6666666666666666,249.39393939393938,554.3453226659316)"><svg viewBox="0 0 396 155" data-background-color="#ffffff" preserveAspectRatio="xMidYMid meet" height="587" width="1500" xmlns="http://www.w3.org/2000/svg" xmlns:xlink="http://www.w3.org/1999/xlink"><g id="tight-bounds" transform="matrix(1,0,0,1,0.2400000000000091,-0.00474875609724279)"><svg viewBox="0 0 395.52 155.00949751219449" height="155.00949751219449" width="395.52"><g><svg viewBox="0 0 395.52 155.00949751219449" height="155.00949751219449" width="395.52"><g><svg viewBox="0 0 397.49759999999986 155.7845449997554" height="155.00949751219449" width="395.52"><g><rect width="397.49759999999986" height="4.771474858666187" x="0" y="85.6123375635261" fill="#8bc53f" opacity="1" stroke-width="0" stroke="transparent" fill-opacity="1" class="rect-qz-0" data-fill-palette-color="primary" rx="1%" id="qz-0" data-palette-color="#8bc53f"></rect></g><g transform="matrix(1,0,0,1,0.9887999999999693,102.87458430351737)"><svg viewBox="0 0 395.5199999999999 52.90996069623805" height="52.90996069623805" width="395.5199999999999"><g id="textblocktransform"><svg viewBox="0 0 395.5199999999999 52.90996069623805" height="52.90996069623805" width="395.5199999999999" id="textblock"><g><svg viewBox="0 0 395.5199999999999 52.90996069623805" height="52.90996069623805" width="395.5199999999999"><g transform="matrix(1,0,0,1,0,0)"><svg width="395.5199999999999" viewBox="4.45 -36.5 351.17 47.65" height="52.90996069623805" data-palette-color="#8bc53f"><g class="wordmark-text-0" data-fill-palette-color="primary" id="text-0"><path d="M31.15-9.15L31.15-9.15Q31.15-6.5 29.8-4.42 28.45-2.35 26.18-1.18 23.9 0 21.2 0L21.2 0 4.45 0 4.45-35.5 21.55-35.5Q24.05-35.5 25.88-34.18 27.7-32.85 28.68-30.78 29.65-28.7 29.65-26.45L29.65-26.45Q29.65-23.8 28.3-21.55 26.95-19.3 24.55-18.2L24.55-18.2Q27.6-17.3 29.38-14.85 31.15-12.4 31.15-9.15ZM27.65-9.75L27.65-9.75Q27.65-11.55 26.85-13.08 26.05-14.6 24.68-15.55 23.3-16.5 21.55-16.5L21.55-16.5 7.95-16.5 7.95-3.05 21.2-3.05Q23-3.05 24.45-4 25.9-4.95 26.78-6.48 27.65-8 27.65-9.75ZM20.45-32.45L7.95-32.45 7.95-19.35 20.15-19.35Q21.9-19.35 23.25-20.28 24.6-21.2 25.4-22.7 26.2-24.2 26.2-25.9L26.2-25.9Q26.2-27.7 25.45-29.18 24.7-30.65 23.4-31.55 22.1-32.45 20.45-32.45L20.45-32.45ZM37.2-4.75L37.2-36.5 40.6-36.5 40.6-5.9Q40.6-3.95 41.3-3.35 42-2.75 43-2.75L43-2.75Q43.9-2.75 44.8-2.95 45.7-3.15 46.35-3.35L46.35-3.35 46.95-0.6Q46-0.2 44.62 0.05 43.25 0.3 42.25 0.3L42.25 0.3Q39.95 0.3 38.57-1.05 37.2-2.4 37.2-4.75L37.2-4.75ZM61.75 0.5L61.75 0.5Q58.95 0.5 56.57-0.58 54.2-1.65 52.47-3.53 50.75-5.4 49.8-7.83 48.85-10.25 48.85-12.95L48.85-12.95Q48.85-15.75 49.8-18.18 50.75-20.6 52.5-22.48 54.25-24.35 56.62-25.43 59-26.5 61.8-26.5L61.8-26.5Q64.6-26.5 66.95-25.43 69.3-24.35 71.05-22.48 72.8-20.6 73.75-18.18 74.7-15.75 74.7-12.95L74.7-12.95Q74.7-10.25 73.75-7.83 72.8-5.4 71.07-3.53 69.35-1.65 66.97-0.58 64.6 0.5 61.75 0.5ZM52.3-12.9L52.3-12.9Q52.3-10 53.57-7.63 54.85-5.25 57-3.88 59.15-2.5 61.75-2.5L61.75-2.5Q64.35-2.5 66.5-3.9 68.65-5.3 69.95-7.73 71.25-10.15 71.25-13L71.25-13Q71.25-15.9 69.95-18.3 68.65-20.7 66.5-22.1 64.35-23.5 61.75-23.5L61.75-23.5Q59.15-23.5 57.02-22.05 54.9-20.6 53.6-18.23 52.3-15.85 52.3-12.9ZM90.84 0.35L90.84 0.35Q88.19 0.35 85.94-0.75 83.69-1.85 82.07-3.73 80.44-5.6 79.54-8 78.64-10.4 78.64-12.95L78.64-12.95Q78.64-15.7 79.52-18.13 80.39-20.55 82.02-22.45 83.64-24.35 85.84-25.43 88.04-26.5 90.74-26.5L90.74-26.5Q94.09-26.5 96.57-24.8 99.04-23.1 100.74-20.6L100.74-20.6 100.74-26.05 103.79-26.05 103.79 0.1Q103.79 3.7 102.07 6.18 100.34 8.65 97.42 9.9 94.49 11.15 91.04 11.15L91.04 11.15Q86.59 11.15 83.84 9.55 81.09 7.95 79.34 5.25L79.34 5.25 81.44 3.6Q82.99 6.05 85.57 7.25 88.14 8.45 91.04 8.45L91.04 8.45Q93.59 8.45 95.72 7.53 97.84 6.6 99.12 4.75 100.39 2.9 100.39 0.1L100.39 0.1 100.39-5.05Q98.89-2.6 96.29-1.13 93.69 0.35 90.84 0.35ZM91.79-2.5L91.79-2.5Q93.34-2.5 94.77-3.05 96.19-3.6 97.39-4.53 98.59-5.45 99.39-6.6 100.19-7.75 100.39-8.95L100.39-8.95 100.39-17Q99.64-18.9 98.24-20.38 96.84-21.85 95.07-22.68 93.29-23.5 91.39-23.5L91.39-23.5Q89.19-23.5 87.47-22.58 85.74-21.65 84.57-20.13 83.39-18.6 82.74-16.7 82.09-14.8 82.09-12.9L82.09-12.9Q82.09-10.8 82.84-8.93 83.59-7.05 84.92-5.58 86.24-4.1 88.02-3.3 89.79-2.5 91.79-2.5Z" fill="#8bc53f" data-fill-palette-color="primary"></path><path d="M118.54-12.95L118.54-12.95Q118.54-16.65 120.06-19.73 121.59-22.8 124.29-24.65 126.99-26.5 130.44-26.5L130.44-26.5Q133.69-26.5 136.26-24.78 138.84-23.05 140.29-20.6L140.29-20.6 140.29-36.5 143.69-36.5 143.69-4.1Q143.69-3.4 143.99-3.08 144.29-2.75 144.89-2.7L144.89-2.7 144.89 0Q143.89 0.15 143.34 0.1L143.34 0.1Q142.29 0.05 141.49-0.75 140.69-1.55 140.69-2.5L140.69-2.5 140.69-5.05Q139.14-2.5 136.49-1 133.84 0.5 130.99 0.5L130.99 0.5Q128.29 0.5 126.01-0.6 123.74-1.7 122.06-3.6 120.39-5.5 119.46-7.93 118.54-10.35 118.54-12.95ZM140.29-8.95L140.29-8.95 140.29-17Q139.64-18.8 138.19-20.28 136.74-21.75 134.91-22.63 133.09-23.5 131.29-23.5L131.29-23.5Q129.19-23.5 127.49-22.63 125.79-21.75 124.56-20.25 123.34-18.75 122.69-16.85 122.04-14.95 122.04-12.95L122.04-12.95Q122.04-10.85 122.76-8.95 123.49-7.05 124.84-5.58 126.19-4.1 127.94-3.3 129.69-2.5 131.74-2.5L131.74-2.5Q133.04-2.5 134.44-3 135.84-3.5 137.11-4.38 138.39-5.25 139.24-6.45 140.09-7.65 140.29-8.95ZM162.64 0.5L162.64 0.5Q159.84 0.5 157.44-0.58 155.04-1.65 153.29-3.53 151.54-5.4 150.56-7.85 149.59-10.3 149.59-13.1L149.59-13.1Q149.59-16.75 151.26-19.8 152.94-22.85 155.89-24.68 158.84-26.5 162.59-26.5L162.59-26.5Q166.44-26.5 169.31-24.65 172.19-22.8 173.84-19.78 175.49-16.75 175.49-13.15L175.49-13.15Q175.49-12.75 175.49-12.38 175.49-12 175.44-11.8L175.44-11.8 153.14-11.8Q153.39-9 154.71-6.83 156.04-4.65 158.16-3.38 160.29-2.1 162.79-2.1L162.79-2.1Q165.34-2.1 167.61-3.4 169.88-4.7 170.79-6.8L170.79-6.8 173.74-6Q172.94-4.15 171.29-2.65 169.63-1.15 167.41-0.33 165.19 0.5 162.64 0.5ZM153.04-14.25L153.04-14.25 172.29-14.25Q172.09-17.1 170.76-19.25 169.44-21.4 167.31-22.63 165.19-23.85 162.64-23.85L162.64-23.85Q160.09-23.85 157.99-22.63 155.89-21.4 154.56-19.23 153.24-17.05 153.04-14.25Z" fill="#5d9943" data-fill-palette-color="accent"></path><path d="M196.19 0L192.69 0 192.69-35.5 207.39-35.5Q209.69-35.5 211.61-34.55 213.54-33.6 214.94-31.98 216.34-30.35 217.14-28.38 217.94-26.4 217.94-24.35L217.94-24.35Q217.94-21.45 216.66-18.88 215.39-16.3 213.09-14.7 210.79-13.1 207.69-13.1L207.69-13.1 196.19-13.1 196.19 0ZM196.19-32.4L196.19-16.2 207.54-16.2Q209.64-16.2 211.19-17.35 212.74-18.5 213.59-20.35 214.44-22.2 214.44-24.35L214.44-24.35Q214.44-26.55 213.44-28.4 212.44-30.25 210.81-31.33 209.19-32.4 207.24-32.4L207.24-32.4 196.19-32.4ZM223.24-4.75L223.24-36.5 226.64-36.5 226.64-5.9Q226.64-3.95 227.34-3.35 228.04-2.75 229.04-2.75L229.04-2.75Q229.94-2.75 230.84-2.95 231.74-3.15 232.39-3.35L232.39-3.35 232.99-0.6Q232.04-0.2 230.66 0.05 229.29 0.3 228.29 0.3L228.29 0.3Q225.99 0.3 224.61-1.05 223.24-2.4 223.24-4.75L223.24-4.75ZM234.58-7.5L234.58-7.5Q234.58-9.95 235.98-11.73 237.38-13.5 239.86-14.48 242.33-15.45 245.58-15.45L245.58-15.45Q247.48-15.45 249.53-15.15 251.58-14.85 253.18-14.25L253.18-14.25 253.18-16.45Q253.18-19.75 251.23-21.7 249.28-23.65 245.83-23.65L245.83-23.65Q243.73-23.65 241.71-22.88 239.68-22.1 237.48-20.6L237.48-20.6 236.18-23Q238.73-24.75 241.18-25.63 243.63-26.5 246.18-26.5L246.18-26.5Q250.98-26.5 253.78-23.75 256.58-21 256.58-16.15L256.58-16.15 256.58-4.1Q256.58-3.4 256.88-3.08 257.18-2.75 257.83-2.7L257.83-2.7 257.83 0Q257.28 0.05 256.88 0.1 256.48 0.15 256.28 0.1L256.28 0.1Q255.03 0.05 254.38-0.7 253.73-1.45 253.68-2.3L253.68-2.3 253.63-4.2Q251.88-1.95 249.08-0.73 246.28 0.5 243.38 0.5L243.38 0.5Q240.88 0.5 238.86-0.58 236.83-1.65 235.71-3.48 234.58-5.3 234.58-7.5ZM252.03-5.5L252.03-5.5Q252.58-6.2 252.88-6.85 253.18-7.5 253.18-8L253.18-8 253.18-11.8Q251.48-12.45 249.66-12.8 247.83-13.15 245.98-13.15L245.98-13.15Q242.33-13.15 240.08-11.7 237.83-10.25 237.83-7.75L237.83-7.75Q237.83-6.3 238.58-5.03 239.33-3.75 240.78-2.93 242.23-2.1 244.18-2.1L244.18-2.1Q246.63-2.1 248.76-3.05 250.88-4 252.03-5.5ZM285.83-15.25L285.83 0 282.43 0 282.43-14.55Q282.43-19.15 281.08-21.28 279.73-23.4 276.83-23.4L276.83-23.4Q274.83-23.4 272.88-22.43 270.93-21.45 269.46-19.78 267.98-18.1 267.33-15.95L267.33-15.95 267.33 0 263.93 0 263.93-26.05 267.03-26.05 267.03-20.15Q268.08-22.05 269.78-23.48 271.48-24.9 273.63-25.7 275.78-26.5 278.08-26.5L278.08-26.5Q280.23-26.5 281.73-25.7 283.23-24.9 284.13-23.43 285.03-21.95 285.43-19.88 285.83-17.8 285.83-15.25L285.83-15.25ZM304.68-4L305.58-1.25Q305.18-1.1 304.33-0.7 303.48-0.3 302.28 0 301.08 0.3 299.68 0.3L299.68 0.3Q298.23 0.3 296.95-0.25 295.68-0.8 294.93-1.93 294.18-3.05 294.18-4.7L294.18-4.7 294.18-23.35 290.58-23.35 290.58-26.05 294.18-26.05 294.18-34.85 297.58-34.85 297.58-26.05 303.58-26.05 303.58-23.35 297.58-23.35 297.58-5.65Q297.68-4.25 298.6-3.55 299.53-2.85 300.73-2.85L300.73-2.85Q302.13-2.85 303.28-3.33 304.43-3.8 304.68-4L304.68-4ZM307.73-7.5L307.73-7.5Q307.73-9.95 309.13-11.73 310.53-13.5 313-14.48 315.48-15.45 318.73-15.45L318.73-15.45Q320.63-15.45 322.68-15.15 324.73-14.85 326.33-14.25L326.33-14.25 326.33-16.45Q326.33-19.75 324.38-21.7 322.43-23.65 318.98-23.65L318.98-23.65Q316.88-23.65 314.85-22.88 312.83-22.1 310.63-20.6L310.63-20.6 309.33-23Q311.88-24.75 314.33-25.63 316.78-26.5 319.33-26.5L319.33-26.5Q324.13-26.5 326.93-23.75 329.73-21 329.73-16.15L329.73-16.15 329.73-4.1Q329.73-3.4 330.03-3.08 330.33-2.75 330.98-2.7L330.98-2.7 330.98 0Q330.43 0.05 330.03 0.1 329.63 0.15 329.43 0.1L329.43 0.1Q328.18 0.05 327.53-0.7 326.88-1.45 326.83-2.3L326.83-2.3 326.78-4.2Q325.03-1.95 322.23-0.73 319.43 0.5 316.53 0.5L316.53 0.5Q314.03 0.5 312-0.58 309.98-1.65 308.85-3.48 307.73-5.3 307.73-7.5ZM325.18-5.5L325.18-5.5Q325.73-6.2 326.03-6.85 326.33-7.5 326.33-8L326.33-8 326.33-11.8Q324.63-12.45 322.8-12.8 320.98-13.15 319.13-13.15L319.13-13.15Q315.48-13.15 313.23-11.7 310.98-10.25 310.98-7.75L310.98-7.75Q310.98-6.3 311.73-5.03 312.48-3.75 313.93-2.93 315.38-2.1 317.33-2.1L317.33-2.1Q319.78-2.1 321.9-3.05 324.03-4 325.18-5.5ZM345.62 0.5L345.62 0.5Q342.42 0.5 339.67-0.55 336.92-1.6 334.92-3.75L334.92-3.75 336.32-6.15Q338.52-4.1 340.75-3.18 342.97-2.25 345.47-2.25L345.47-2.25Q348.52-2.25 350.42-3.48 352.32-4.7 352.32-7L352.32-7Q352.32-8.55 351.4-9.38 350.47-10.2 348.75-10.73 347.02-11.25 344.62-11.85L344.62-11.85Q341.92-12.6 340.1-13.43 338.27-14.25 337.35-15.53 336.42-16.8 336.42-18.85L336.42-18.85Q336.42-21.4 337.7-23.08 338.97-24.75 341.2-25.63 343.42-26.5 346.17-26.5L346.17-26.5Q349.17-26.5 351.47-25.55 353.77-24.6 355.22-22.9L355.22-22.9 353.57-20.6Q352.17-22.2 350.25-22.98 348.32-23.75 345.97-23.75L345.97-23.75Q344.37-23.75 342.92-23.33 341.47-22.9 340.55-21.93 339.62-20.95 339.62-19.25L339.62-19.25Q339.62-17.85 340.32-17.07 341.02-16.3 342.42-15.78 343.82-15.25 345.87-14.65L345.87-14.65Q348.82-13.85 351.02-13.03 353.22-12.2 354.42-10.9 355.62-9.6 355.62-7.25L355.62-7.25Q355.62-3.6 352.87-1.55 350.12 0.5 345.62 0.5Z" fill="#8bc53f" data-fill-palette-color="primary"></path></g></svg></g></svg></g></svg></g></svg></g><g transform="matrix(1,0,0,1,180.17523979273537,0)"><svg viewBox="0 0 37.14712041452915 73.121565682201" height="73.121565682201" width="37.14712041452915"><g><svg xmlns="http://www.w3.org/2000/svg" xmlns:xlink="http://www.w3.org/1999/xlink" version="1.1" x="0" y="0" viewBox="29.728363895278598 10.068614311668554 40.606636104721396 79.93138568833145" style="enable-background:new 0 0 100 100;" xml:space="preserve" height="73.121565682201" width="37.14712041452915" class="icon-icon-0" data-fill-palette-color="accent" id="icon-0"><path d="M29.807 64.508c-0.781 7.808 4.314 15.001 12.68 17.901 2.907 1.008 4.98 3.08 5.547 5.541l0.199 0.868C48.392 89.509 49 89.984 49.746 90c0.013 0 0.025 0 0.038 0 0.733 0 1.347-0.447 1.531-1.121l0.285-1.032c0.662-2.395 2.753-4.377 5.594-5.305 7.859-2.566 13.141-9.183 13.141-16.465 0-4.405-1.886-8.619-5.311-11.865-3.464-3.283-8.147-5.246-13.192-5.632 0.017-0.931 0.141-3.887 0.977-7.997 0.799 0.981 1.912 1.685 3.204 1.966 0.407 0.089 0.816 0.132 1.224 0.132 1.083 0 2.146-0.31 3.078-0.91 1.283-0.825 2.169-2.101 2.493-3.592 0.063-0.293 0.104-0.59 0.12-0.889 1.937-0.817 3.412-2.449 4.019-4.487 0.398-1.342 0.385-2.763-0.026-4.09 1.396-0.793 2.43-2.083 2.897-3.652 0.689-2.322-0.049-4.838-1.805-6.435 0.185-0.344 0.333-0.705 0.445-1.081 0.913-3.075-0.845-6.319-3.919-7.233-1.488-0.441-3.061-0.28-4.428 0.461-1.1 0.595-1.959 1.506-2.483 2.616-3.206-0.75-6.484 1.127-7.435 4.321-0.303 1.02-0.338 2.102-0.111 3.134-1.375 0.538-2.532 1.499-3.332 2.721-0.591-0.834-1.413-1.475-2.392-1.838-1.135-0.42-2.35-0.43-3.478-0.034-1.303-1.823-3.761-2.528-5.872-1.562-2.392 1.097-3.446 3.936-2.35 6.328 0.11 0.242 0.241 0.472 0.391 0.691-1.151 1.486-1.42 3.538-0.618 5.287 0.533 1.164 1.457 2.062 2.606 2.56-0.14 1.062 0.021 2.146 0.471 3.129 0.702 1.532 2.025 2.66 3.622 3.122 0.045 0.196 0.103 0.39 0.173 0.578 0.7 1.89 2.496 3.062 4.403 3.062 0.54 0 1.09-0.094 1.625-0.292 0.913-0.338 1.661-0.946 2.195-1.709 0.997 2.878 1.386 4.973 1.494 5.633-0.093 0.004-0.185-0.004-0.279 0.001C38.807 49.052 30.665 55.925 29.807 64.508zM50.131 44.399c-0.218-0.762-0.487-1.611-0.811-2.528 0.389-0.04 0.776-0.127 1.15-0.265 0.03-0.011 0.054-0.029 0.083-0.041C50.371 42.6 50.233 43.551 50.131 44.399zM51.553 22.48c0.287-0.064 0.532-0.253 0.668-0.515 0.137-0.262 0.15-0.57 0.038-0.843-0.377-0.914-0.428-1.897-0.147-2.843 0.673-2.257 3.055-3.546 5.311-2.878 0.147 0.044 0.291 0.096 0.43 0.154 0.265 0.111 0.577 0.053 0.835-0.073s0.462-0.406 0.538-0.683c0.29-0.977 0.943-1.782 1.84-2.268 0.897-0.485 1.928-0.592 2.905-0.302 2.018 0.6 3.171 2.729 2.572 4.746-0.136 0.456-0.356 0.88-0.655 1.262-0.173 0.221-0.244 0.504-0.198 0.781s0.207 0.521 0.442 0.674c1.578 1.023 2.306 2.997 1.771 4.799-0.385 1.29-1.332 2.302-2.601 2.778-0.262 0.099-0.471 0.302-0.575 0.561-0.105 0.259-0.097 0.551 0.022 0.803 0.535 1.131 0.636 2.409 0.281 3.6-0.485 1.636-1.755 2.907-3.395 3.4-0.451 0.136-0.746 0.568-0.709 1.038 0.029 0.364 0.005 0.729-0.072 1.083-0.21 0.969-0.785 1.798-1.62 2.334-0.833 0.537-1.827 0.714-2.796 0.505-1.381-0.3-2.457-1.342-2.806-2.718-0.026-0.101-0.078-0.186-0.13-0.271 1.386-5.33 3.918-11.934 8.555-18.434 0.32-0.449 0.216-1.074-0.233-1.395-0.451-0.32-1.074-0.216-1.396 0.233-4.005 5.614-6.497 11.244-8.049 16.134-0.178-0.206-0.368-0.402-0.58-0.574 0.286-1.231 0.159-2.512-0.376-3.679-0.717-1.565-2.094-2.709-3.726-3.151 0.007-0.182 0.002-0.364-0.01-0.545 0.043-0.072 0.093-0.139 0.117-0.222C48.326 24.22 49.762 22.881 51.553 22.48zM46.376 40.482c-0.111 1.024-0.777 1.882-1.738 2.237-1.386 0.516-2.942-0.196-3.458-1.59-0.092-0.244-0.146-0.503-0.162-0.769-0.028-0.47-0.381-0.856-0.847-0.927-1.254-0.192-2.316-0.992-2.843-2.14-0.383-0.835-0.442-1.783-0.168-2.668 0.083-0.267 0.05-0.557-0.09-0.798-0.141-0.242-0.376-0.414-0.648-0.474-0.97-0.215-1.761-0.852-2.171-1.748-0.574-1.252-0.249-2.758 0.79-3.663 0.212-0.184 0.336-0.449 0.344-0.729 0.007-0.28-0.104-0.551-0.307-0.746-0.255-0.246-0.457-0.529-0.6-0.841-0.637-1.39-0.024-3.039 1.365-3.676 0.374-0.172 0.768-0.252 1.154-0.252 1.05 0 2.054 0.595 2.51 1.589 0.005 0.01 0.035 0.087 0.039 0.098 0.114 0.264 0.337 0.466 0.61 0.554 0.274 0.088 0.571 0.056 0.818-0.092 0.095-0.056 0.193-0.108 0.295-0.155 0.758-0.349 1.606-0.38 2.393-0.089 0.783 0.291 1.407 0.87 1.755 1.63 0.302 0.656 0.365 1.375 0.187 2.077-0.073 0.286-0.017 0.589 0.155 0.829s0.44 0.392 0.734 0.416c1.354 0.108 2.546 0.94 3.11 2.171 0.423 0.92 0.454 1.95 0.091 2.899-0.179 0.465 0.013 0.991 0.449 1.232 0.562 0.312 0.996 0.815 1.219 1.416 0.106 0.286 0.148 0.578 0.155 0.867-0.121 0.467-0.234 0.924-0.338 1.371-0.301 0.542-0.779 0.989-1.405 1.221-0.394 0.145-0.808 0.184-1.217 0.14-1.718-4.208-4.572-9.412-9.265-14.338-0.381-0.401-1.015-0.416-1.413-0.035-0.4 0.381-0.416 1.014-0.034 1.414 4.287 4.501 6.975 9.305 8.641 13.26C46.439 40.271 46.388 40.37 46.376 40.482zM50.025 50.486c5.206 0 10.119 1.854 13.623 5.177 3.022 2.865 4.687 6.563 4.687 10.414 0 6.415-4.727 12.268-11.762 14.564-3.309 1.08-5.804 3.388-6.764 6.228-0.902-2.853-3.349-5.198-6.669-6.349-7.473-2.59-12.031-8.945-11.344-15.812 0.761-7.61 8.093-13.71 17.054-14.189C49.243 50.497 49.635 50.486 50.025 50.486z" fill="#5d9943" data-fill-palette-color="accent"></path><path d="M49.197 55.394c4.005-0.213 7.83 1.116 10.499 3.646 2.13 2.019 3.303 4.623 3.303 7.331 0 0.552 0.447 1 1 1s1-0.448 1-1c0-3.263-1.395-6.381-3.927-8.782-3.065-2.907-7.423-4.432-11.982-4.192-0.551 0.029-0.975 0.5-0.945 1.052C48.175 55.001 48.646 55.421 49.197 55.394z" fill="#5d9943" data-fill-palette-color="accent"></path></svg></g></svg></g><g></g></svg></g></svg></g><defs></defs></svg><rect width="395.52" height="155.00949751219449" fill="none" stroke="none" visibility="hidden"></rect></g></svg></g></svg>